<?xml version="1.0" standalone="no"?>
<!DOCTYPE svg PUBLIC "-//W3C//DTD SVG 20010904//EN"
 "http://www.w3.org/TR/2001/REC-SVG-20010904/DTD/svg10.dtd">
<svg version="1.0" xmlns="http://www.w3.org/2000/svg"
 width="512.000000pt" height="512.000000pt" viewBox="0 0 512.000000 512.000000"
 preserveAspectRatio="xMidYMid meet">

<g transform="translate(0.000000,512.000000) scale(0.100000,-0.100000)"
fill="#000000" stroke="none">
<path d="M2510 3435 c-58 -35 -111 -69 -117 -75 -9 -8 -13 -52 -13 -153 l-1
-142 -31 -20 c-61 -39 -71 -63 -69 -167 1 -103 10 -124 71 -165 73 -50 217
-67 327 -38 l68 17 225 -134 c124 -74 376 -221 560 -327 184 -107 430 -249
545 -316 l210 -121 3 -403 c2 -340 4 -403 17 -407 8 -3 68 26 135 65 l120 72
0 157 c0 86 1 371 1 632 l1 475 -69 42 c-37 23 -425 248 -861 500 -436 252
-836 484 -890 515 -53 32 -104 58 -112 57 -8 0 -62 -29 -120 -64z m90 -91 l0
-75 -61 34 c-33 19 -60 38 -60 42 0 7 101 74 114 75 4 0 7 -34 7 -76z m137 39
l63 -38 0 -97 0 -97 -70 40 -70 41 0 94 c0 52 3 94 7 94 4 0 35 -17 70 -37z
m322 -188 c84 -49 155 -94 157 -100 3 -6 4 -51 2 -98 l-3 -87 -177 102 -178
103 0 99 0 98 23 -14 c12 -8 91 -55 176 -103z m-534 51 l70 -42 3 -52 3 -52
-58 0 c-32 0 -68 -3 -80 -6 -23 -6 -23 -5 -23 95 0 55 3 101 8 100 4 0 39 -19
77 -43z m210 -123 c54 -31 65 -42 65 -64 l0 -26 -56 29 c-31 15 -63 28 -70 28
-9 0 -14 12 -14 35 0 19 2 35 5 35 3 0 35 -17 70 -37z m745 -172 l185 -107 3
-98 c1 -54 -1 -96 -6 -94 -4 1 -92 52 -195 111 l-187 109 0 94 c0 52 3 94 8
94 4 -1 90 -49 192 -109z m-512 -16 c2 -30 0 -55 -3 -55 -3 0 -30 16 -60 35
-57 36 -61 44 -49 103 l6 31 52 -29 c51 -29 51 -30 54 -85z m202 -65 c43 -25
45 -28 48 -79 2 -29 -1 -51 -5 -50 -5 2 -48 27 -96 54 l-87 50 0 53 0 54 48
-28 c26 -15 67 -39 92 -54z m-260 -16 c79 -46 78 -64 -9 -117 -55 -33 -68 -37
-88 -28 l-25 11 26 31 c21 25 26 41 26 85 0 30 2 54 4 54 3 0 32 -16 66 -36z
m436 -86 c53 -32 54 -33 54 -80 0 -27 -3 -48 -6 -48 -4 0 -31 14 -60 31 -54
30 -54 31 -54 80 0 27 3 49 6 49 3 0 30 -15 60 -32z m692 -140 c163 -95 328
-189 367 -209 38 -20 71 -41 72 -46 2 -6 -33 -32 -79 -58 -79 -46 -84 -47
-108 -33 -14 9 -144 85 -290 171 l-265 155 -3 96 c-1 53 0 96 3 96 4 0 140
-77 303 -172z m-843 52 c5 -8 -138 -100 -155 -100 -15 0 -13 177 2 182 12 4
143 -66 153 -82z m-225 -11 l0 -50 -40 22 c-22 13 -40 25 -40 29 0 5 68 49 78
50 1 0 2 -23 2 -51z m605 -34 l95 -56 0 -50 c0 -27 -2 -49 -4 -49 -2 0 -52 28
-110 61 l-106 62 0 49 c0 59 -7 60 125 -17z m-238 -32 c34 -20 63 -42 63 -49
0 -12 -128 -94 -146 -94 -5 0 -41 19 -81 43 l-72 43 77 47 c42 26 81 47 86 47
5 0 38 -17 73 -37z m461 -98 l52 -30 0 -52 0 -52 -60 36 -60 35 0 50 c0 27 3
48 8 46 4 -1 31 -16 60 -33z m-240 -29 l72 -43 -82 -50 c-46 -28 -86 -49 -90
-46 -10 5 -11 167 -1 176 12 12 27 7 101 -37z m-158 -51 c0 -25 -3 -45 -7 -45
-10 0 -73 38 -73 44 0 6 63 46 73 46 4 0 7 -20 7 -45z m800 -153 c36 -19 71
-39 78 -44 13 -11 17 -108 5 -108 -5 0 -89 49 -188 108 l-180 108 -3 52 -3 52
113 -66 c62 -37 142 -82 178 -102z m-441 87 c39 -22 71 -44 71 -48 0 -6 -126
-87 -146 -93 -14 -4 -155 74 -151 84 2 8 137 95 149 97 3 1 38 -17 77 -40z
m751 -205 l0 -166 -67 38 c-38 20 -76 42 -85 48 -14 9 -18 25 -18 81 l0 70 78
47 c42 25 80 47 85 47 4 1 7 -74 7 -165z m-487 52 c9 -6 17 -14 17 -18 0 -7
-113 -78 -124 -78 -3 0 -6 36 -6 81 l0 81 48 -28 c26 -15 55 -32 65 -38z
m-175 -60 l-3 -35 -52 32 c-29 18 -53 34 -53 37 0 3 24 19 53 37 l52 32 3 -35
c2 -19 2 -49 0 -68z m337 -28 c41 -24 75 -46 75 -49 0 -8 -148 -99 -162 -99
-21 0 -160 82 -151 90 8 8 156 99 161 100 1 0 36 -19 77 -42z m105 -182 l0
-85 -71 41 c-38 22 -68 43 -65 46 6 5 129 81 134 82 1 0 2 -38 2 -84z m123 48
c34 -20 63 -37 65 -39 2 -1 -19 -15 -45 -30 -26 -16 -58 -35 -70 -43 l-23 -14
0 81 c0 44 3 81 6 81 3 0 33 -16 67 -36z m97 -183 l0 -90 -62 -37 c-35 -21
-73 -44 -86 -52 l-23 -15 3 94 3 93 80 48 c44 26 81 47 83 48 1 0 2 -40 2 -89z
m0 -246 l0 -95 -37 -23 c-21 -13 -59 -36 -85 -51 l-48 -28 0 95 0 96 83 50
c45 28 83 51 85 51 1 0 2 -43 2 -95z m0 -282 l0 -128 -33 -19 c-17 -10 -56
-32 -84 -48 l-53 -30 0 125 0 126 83 50 c45 28 83 51 85 51 1 0 2 -57 2 -127z"/>
</g>
</svg>
